<svg width="25" height="26" viewBox="0 0 25 26" fill="none" xmlns="http://www.w3.org/2000/svg">
<path d="M17.4999 6.74951C17.4999 6.41799 17.6316 6.10005 17.866 5.86563C18.1004 5.63121 18.4184 5.49951 18.7499 5.49951C19.0814 5.49951 19.3994 5.63121 19.6338 5.86563C19.8682 6.10005 19.9999 6.41799 19.9999 6.74951C19.9999 7.08103 19.8682 7.39897 19.6338 7.63339C19.3994 7.86782 19.0814 7.99951 18.7499 7.99951C18.4184 7.99951 18.1004 7.86782 17.866 7.63339C17.6316 7.39897 17.4999 7.08103 17.4999 6.74951Z" fill="#F92C2C"/>
<path fill-rule="evenodd" clip-rule="evenodd" d="M12.5001 7.0625C10.9253 7.0625 9.41511 7.68806 8.30161 8.80155C7.18812 9.91505 6.56256 11.4253 6.56256 13C6.56256 14.5747 7.18812 16.0849 8.30161 17.1984C9.41511 18.3119 10.9253 18.9375 12.5001 18.9375C14.0748 18.9375 15.585 18.3119 16.6985 17.1984C17.812 16.0849 18.4376 14.5747 18.4376 13C18.4376 11.4253 17.812 9.91505 16.6985 8.80155C15.585 7.68806 14.0748 7.0625 12.5001 7.0625ZM8.43756 13C8.43756 11.9226 8.86557 10.8892 9.62744 10.1274C10.3893 9.36551 11.4226 8.9375 12.5001 8.9375C13.5775 8.9375 14.6108 9.36551 15.3727 10.1274C16.1345 10.8892 16.5626 11.9226 16.5626 13C16.5626 14.0774 16.1345 15.1108 15.3727 15.8726C14.6108 16.6345 13.5775 17.0625 12.5001 17.0625C11.4226 17.0625 10.3893 16.6345 9.62744 15.8726C8.86557 15.1108 8.43756 14.0774 8.43756 13Z" fill="#F92C2C"/>
<path fill-rule="evenodd" clip-rule="evenodd" d="M19.0725 1.54158C14.7043 1.05711 10.2958 1.05711 5.92754 1.54158C3.41254 1.82283 1.38129 3.80408 1.08629 6.33158C0.568924 10.7624 0.568924 15.2383 1.08629 19.6691C1.38129 22.1966 3.41129 24.1778 5.92754 24.4591C10.2959 24.9425 14.7042 24.9425 19.0725 24.4591C21.5875 24.1778 23.6188 22.1966 23.9138 19.6691C24.4312 15.2383 24.4312 10.7624 23.9138 6.33158C23.6188 3.80408 21.5888 1.82283 19.0725 1.54158ZM6.13504 3.40408C10.3654 2.93496 14.6347 2.93496 18.865 3.40408C20.5275 3.59158 21.8588 4.90283 22.0525 6.55033C22.554 10.8357 22.554 15.1649 22.0525 19.4503C21.9523 20.2566 21.5832 21.0056 21.0048 21.5763C20.4265 22.1469 19.6726 22.5059 18.865 22.5953C14.6347 23.0644 10.3654 23.0644 6.13504 22.5953C5.32747 22.5059 4.5736 22.1469 3.99523 21.5763C3.41686 21.0056 3.04776 20.2566 2.94754 19.4503C2.44611 15.1649 2.44611 10.8357 2.94754 6.55033C3.04776 5.74402 3.41686 4.99505 3.99523 4.42439C4.5736 3.85373 5.32747 3.49346 6.13504 3.40408Z" fill="#F92C2C"/>
</svg>
