<svg width="16" height="16" viewBox="0 0 16 16" fill="none" xmlns="http://www.w3.org/2000/svg">
<g clip-path="url(#clip0_77_287)">
<path d="M15.6707 3.22292V12.775C15.6707 13.3171 15.2576 13.7302 14.7155 13.7302H13.7603V5.06122L8.02905 9.17816L2.2978 5.06122V13.7302H1.34259C0.800506 13.7302 0.387379 13.3171 0.387379 12.775V3.22292C0.387379 2.95164 0.489586 2.71284 0.661046 2.54376C0.750296 2.45435 0.856639 2.38383 0.973732 2.3364C1.09083 2.28897 1.21627 2.26561 1.34259 2.26771H1.66115L8.02905 6.88471L14.3969 2.26771H14.7155C14.9868 2.26771 15.2256 2.36992 15.397 2.54376C15.5685 2.71284 15.6707 2.95164 15.6707 3.22292Z" fill="white"/>
</g>
<defs>
<clipPath id="clip0_77_287">
<rect width="15.2833" height="15.2833" fill="white" transform="translate(0.387379 0.358398)"/>
</clipPath>
</defs>
</svg>
