<svg width="21" height="21" viewBox="0 0 21 21" fill="none" xmlns="http://www.w3.org/2000/svg">
<path d="M6.99968 11.374V3.93652C6.99968 3.58843 7.13796 3.25459 7.3841 3.00845C7.63024 2.7623 7.96408 2.62402 8.31218 2.62402C8.66028 2.62402 8.99412 2.7623 9.24026 3.00845C9.4864 3.25459 9.62468 3.58843 9.62468 3.93652V10.499M9.62468 10.0615V8.31152C9.62468 7.96343 9.76296 7.62959 10.0091 7.38345C10.2552 7.1373 10.5891 6.99902 10.9372 6.99902C11.2853 6.99902 11.6191 7.1373 11.8653 7.38345C12.1114 7.62959 12.2497 7.96343 12.2497 8.31152V10.499M12.2497 9.18652C12.2497 8.83843 12.388 8.50459 12.6341 8.25845C12.8802 8.0123 13.2141 7.87402 13.5622 7.87402C13.9103 7.87402 14.2441 8.0123 14.4903 8.25845C14.7364 8.50459 14.8747 8.83843 14.8747 9.18652V10.499" stroke="#F92C2C" stroke-width="1.2" stroke-linecap="round" stroke-linejoin="round"/>
<path d="M14.8752 10.0617C14.8752 9.71356 15.0135 9.37972 15.2597 9.13357C15.5058 8.88743 15.8396 8.74915 16.1877 8.74915C16.5358 8.74915 16.8697 8.88743 17.1158 9.13357C17.362 9.37972 17.5002 9.71356 17.5002 10.0617V13.9992C17.5002 15.3915 16.9471 16.7269 15.9626 17.7115C14.978 18.696 13.6426 19.2492 12.2502 19.2492H10.5002H10.6822C9.81279 19.2493 8.95691 19.0335 8.19145 18.6212C7.426 18.2088 6.77494 17.6128 6.29674 16.8867L6.12524 16.6242C5.85224 16.205 4.89412 14.5347 3.24999 11.6122C3.08239 11.3142 3.03762 10.9627 3.1252 10.6323C3.21279 10.3019 3.42582 10.0187 3.71899 9.8429C4.03126 9.65553 4.39718 9.57788 4.75863 9.62227C5.12008 9.66666 5.45634 9.83054 5.71399 10.0879L7.00024 11.3742M2.22362 4.8939C2.89511 4.403 3.61662 3.98446 4.37612 3.64528M12.2502 3.0249C13.3897 3.33067 14.4767 3.80616 15.4746 4.4354" stroke="#F92C2C" stroke-width="1.2" stroke-linecap="round" stroke-linejoin="round"/>
</svg>
